PathFileType	4	(X/Y/Z)	/home/abdul/Desktop/myosuite/custom_workspace/IK/output/S12_12_1.trc
DataRate	CameraRate	NumFrames	NumMarkers	Units	OrigDataRate	OrigDataStartFrame	OrigNumFrames
200.0	200.0	34	3	mm	200.0	1042	2082
Frame#	Time	V_Shoulder			V_Elbow			V_Wrist		
		X1	Y1	Z1	X2	Y2	Z2	X3	Y3	Z3

1042	5.205	-18.671249701591375	716.645778783728	263.1054607359686	-88.6495258559607	609.2234605276669	18.912012061694554	8.949151697382993	535.7347086741144	215.49620915062863
1043	5.21	-18.689071440374423	716.6034551865678	263.10689419314514	-88.64753052109123	609.2262610954806	18.88729697187851	8.910219569854087	535.6395488874291	215.43598648484976
1044	5.215	-18.70642572855989	716.5616817339754	263.1084519874136	-88.64541213721579	609.229864066767	18.86214963603477	8.870364858732374	535.5437930510365	215.37477286878885
1045	5.22	-18.723302290256974	716.5204680166612	263.1101430779811	-88.64316479813382	609.2342533387514	18.83658457930283	8.829550311105674	535.4474618757126	215.31266219114394
1046	5.225	-18.73969020351632	716.4798239275459	263.11197669195263	-88.64078188344128	609.2394141304792	18.81061594065428	8.787736175119317	535.3505770493687	215.24975082977375
1047	5.23	-18.755577908945725	716.4397597000838	263.11396230328904	-88.63825609632369	609.2453331093994	18.7842574447642	8.74488019958439	535.2531610537525	215.18613734154943
1048	5.235	-18.770953219871966	716.4002859460243	263.116109611414	-88.63557950177723	609.2519985118518	18.757522376067264	8.70093764986355	535.1552369790123	215.12192214100762
1049	5.24	-18.78580333405336	716.361413692464	263.1184285195218	-88.63274356491888	609.25940025678	18.73042355500956	8.655861339828602	535.0568283366963	215.05720716923827
1050	5.245	-18.80011484694396	716.3231544180372	263.12092911263477	-88.62973918905725	609.2675300520161	18.702973316503034	8.609601679558311	534.9579588717363	214.99209555450525
1051	5.25	-18.813873766506664	716.2855200880964	263.1236216354642	-88.62655675320858	609.2763814925042	18.67518349058542	8.562106738319176	534.8586523739285	214.9266912661569
1052	5.255	-18.827065529568547	716.248523188745	263.12651647012825	-88.6231861487584	609.2859501498665	18.647065385285085	8.51332232224749	534.7589324893833	214.8610987634341
1053	5.26	-18.83967501970805	716.2121767595751	263.12962411378106	-88.61961681498663	609.2962336527423	18.618629771687466	8.46319206602833	534.6588225323842	214.79542264082707
1054	5.265	-18.851686586659657	716.1764944249799	263.13295515621024	-88.61583777319458	609.3072317573694	18.58988687119726	8.411657537747718	534.5583452980512	214.7297672716663
1055	5.27	-18.86308406721777	716.1414904239082	263.13652025745836	-88.61183765919623	609.318946407916	18.56084634498863	8.35865835597864	534.4575228761651	214.6642364516593
1056	5.275	-18.873850807617615	716.1071796379356	263.1403301255268	-88.60760475395936	609.3313817861123	18.53151728563453	8.304132318051263	534.3563764664648	214.59893304410195
1057	5.28	-18.883969687366992	716.0735776175317	263.14439549422036	-88.60312701221046	609.3445443497794	18.501908210905142	8.24801553835323	534.2549261956915	214.533958628501
1058	5.285	-18.89342314449885	716.0407006064105	263.14872710118897	-88.59839208884489	609.358442859894	18.47202705972537	8.190242595408655	534.1531909366041	214.46941315434236
1059	5.29	-18.902193202210658	716.0085655638565	263.15333566622706	-88.59338736301426	609.3730883958817	18.44188119028132	8.130746686395206	534.0511881291485	214.40539460172675
1060	5.295	-18.910261496852712	715.9771901849241	263.1582318698873	-88.58809995979418	609.3884943588816	18.411477380266362	8.069459787678355	533.9489336039217	214.3419986505752
1061	5.3	-18.91760930722366	715.9465929184183	263.1634263324663	-88.58251676936777	609.4046764627772	18.380821829258515	8.006312819871686	533.8464414080239	214.27931836007082
1062	5.305	-18.924217585127806	715.9167929825675	263.16892959342096	-88.57662446369335	609.4216527128448	18.34992016322217	7.941235815872494	533.7437236333525	214.2174438599651
1063	5.31	-18.93006698714498	715.887810378314	263.1747520912697	-88.57040951065824	609.4394433719258	18.318777441129196	7.874158090274113	533.6407902473445	214.15646205531988
1064	5.315	-18.935137907560257	715.8596659001464	263.1809041440351	-88.56385818575441	609.4580709140854	18.28739816369642	7.805008408520804	533.5376489261383	214.09645634619716
1065	5.32	-18.939410512397156	715.8323811444112	263.18739593028204	-88.55695658134502	609.4775599657788	18.255786284238916	7.733715154148456	533.4343048900826	214.03750636373206
1066	5.325	-18.94286477449473	715.8059785150493	263.1942374708024	-88.54969061362458	609.4979372346049	18.223945221641053	7.66020649244528	533.3307607414813	213.9796877239446
1067	5.33	-18.94548050956546	715.7804812267076	263.2014386109983	-88.54204602740785	609.5192314257831	18.191877875449805	7.584410528871635	533.2270163044338	213.92307180055025
1068	5.335	-18.947237413167965	715.755913305189	263.20900900401165	-88.53400839891427	609.5414731465486	18.159586643097605	7.506255460597396	533.1230684665911	213.8677255179302
1069	5.34	-18.948115098525385	715.7322995852049	263.2169580946473	-88.52556313674506	609.5646947987208	18.12707343926445	7.425669719549116	533.0189110226219	213.81371116530892
1070	5.345	-18.94809313511756	715.7096657054113	263.225295104132	-88.51669548127956	609.5889304597506	18.094339717391424	7.342582105407686	532.9145345191569	213.76108623306936
1071	5.35	-18.947151087972454	715.6880381007087	263.23402901575247	-88.50739050274376	609.6142157526149	18.061386493360043	7.2569219070604	532.809926100959	213.70990327200946
1072	5.355	-18.94526855757981	715.6674439918002	263.24316856140916	-88.49763309822976	609.6405877049767	18.02821437135354	7.168619011088891	532.7050693580477	213.6602097762085
1073	5.36	-18.94242522034776	715.6479113720087	263.2527222091212	-88.48740798796692	609.6680845980852	17.994823571917507	7.077603995966246	532.5999441734945	213.61204809003416
1074	5.365	-18.93860086952114	715.6294689913592	263.26269815151534	-88.47669971116676	609.6967458059376	17.961213962238325	6.983808210742123	532.4945265716035	213.5654553396742
1075	5.37	-18.933775456478145	715.6121463379426	263.2731042953256	-88.46549262177982	609.7266116252772	17.92738508865752	6.887163837113583	532.3887885661854	213.52046338942813
